<svg xmlns="http://www.w3.org/2000/svg" width="600" height="380" viewBox="0 0 600 380">
  <rect width="600" height="380" fill="#C4BDB0"/>
  
  <!-- Ground shadow -->
  <ellipse cx="300" cy="251" rx="136" ry="9" fill="#b4ada1" opacity="0.4"/>
  
  <!-- House body -->
  <rect x="148" y="138" width="304" height="104" fill="#a09a90"/>
  
  <!-- Side posts -->
  <rect x="148" y="138" width="7" height="104" fill="#3A4A56" opacity="0.6"/>
  <rect x="445" y="138" width="7" height="104" fill="#3A4A56" opacity="0.6"/>
  
  <rect x="348" y="204" width="57" height="38" fill="#a09a90"/><rect x="352" y="210" width="49" height="26" fill="#b4ada1" stroke="#a09a90" stroke-width="1"/><rect x="170" y="160" width="26" height="20" fill="#b4ada1" stroke="#a09a90" stroke-width="1.2"/><line x1="183" y1="160" x2="183" y2="180" stroke="#a09a90" stroke-width="0.8"/>
  
  <!-- Door -->
  <rect x="289" y="208" width="22" height="34" fill="#C4BDB0" stroke="#4ECDC4" stroke-width="1.5"/>
  
  <!-- Roof -->
  <polygon points="139,138 300,72 461,138" fill="#1C2B35" opacity="0.85"/>
  
  <!-- Wave 1 -->
  <path d="M129 264 Q171 251 214 264 Q256 277 299 264 Q341 251 384 264 Q426 277 469 264" stroke="#4ECDC4" stroke-width="2" fill="none" stroke-linecap="round"/>
  
  <!-- Wave 2 -->
  <path d="M129 278 Q171 272 214 278 Q256 284 299 278 Q341 272 384 278 Q426 284 469 278" stroke="#4ECDC4" stroke-width="1" fill="none" stroke-linecap="round" opacity="0.35"/>
  
  <!-- Logo mark small -->
  <text x="580" y="364" font-family="serif" font-size="9" fill="#1C2B35" opacity="0.2" text-anchor="end">WHITSUNDAY HOMES</text>
  
  <!-- Label -->
  <rect x="0" y="339" width="600" height="41" fill="#b4ada1" opacity="0.5"/>
  <text x="20" y="354" font-family="sans-serif" font-size="12" fill="#1C2B35" opacity="0.55" font-weight="600">5 Bed · Cannonvale</text>
</svg>