<svg xmlns="http://www.w3.org/2000/svg" width="800" height="600" viewBox="0 0 800 600" font-family="sans-serif">
  <rect width="800" height="600" fill="#F6F2ED"/>
  <!-- Title bar -->
  <rect width="800" height="48" fill="#1C2B35"/>
  <text x="20" y="30" font-size="13" font-weight="700" fill="white" letter-spacing="1">THE SHUTE — FLOOR PLAN</text>
  <text x="780" y="30" font-size="10" fill="#4ECDC4" text-anchor="end" letter-spacing="2">WHITSUNDAY HOMES</text>
  <rect x="20" y="68" width="145" height="105" fill="#EEF4F8" stroke="#1C2B35" stroke-width="2"/>
  <text x="92" y="114" font-size="11" fill="#1C2B35" text-anchor="middle" font-weight="600">MASTER</text>
  <text x="92" y="130" font-size="9" fill="#7A9099" text-anchor="middle">13.8m²</text>
  <rect x="185" y="68" width="120" height="100" fill="#EEF4F8" stroke="#1C2B35" stroke-width="2"/>
  <text x="245" y="112" font-size="11" fill="#1C2B35" text-anchor="middle" font-weight="600">BED 2</text>
  <text x="245" y="128" font-size="9" fill="#7A9099" text-anchor="middle">10.4m²</text>
  <rect x="325" y="68" width="115" height="100" fill="#EEF4F8" stroke="#1C2B35" stroke-width="2"/>
  <text x="382" y="112" font-size="11" fill="#1C2B35" text-anchor="middle" font-weight="600">BED 3</text>
  <text x="382" y="128" font-size="9" fill="#7A9099" text-anchor="middle">9.8m²</text>
  <rect x="20" y="173" width="80" height="70" fill="#E8F0F8" stroke="#1C2B35" stroke-width="2"/>
  <text x="60" y="202" font-size="11" fill="#1C2B35" text-anchor="middle" font-weight="600">BATH</text>
  <rect x="100" y="173" width="65" height="70" fill="#F4F0EA" stroke="#1C2B35" stroke-width="2"/>
  <text x="132" y="202" font-size="11" fill="#1C2B35" text-anchor="middle" font-weight="600">LAUNDRY</text>
  <rect x="20" y="263" width="260" height="140" fill="#FAFAF8" stroke="#1C2B35" stroke-width="2"/>
  <text x="150" y="327" font-size="11" fill="#1C2B35" text-anchor="middle" font-weight="600">LIVING / DINING</text>
  <text x="150" y="343" font-size="9" fill="#7A9099" text-anchor="middle">24m²</text>
  <rect x="290" y="263" width="150" height="140" fill="#F8F4EC" stroke="#1C2B35" stroke-width="2"/>
  <text x="365" y="327" font-size="11" fill="#1C2B35" text-anchor="middle" font-weight="600">KITCHEN</text>
  <text x="365" y="343" font-size="9" fill="#7A9099" text-anchor="middle">10.4m²</text>
  <rect x="20" y="403" width="260" height="55" fill="#EEF8EC" stroke="#1C2B35" stroke-width="2"/>
  <text x="150" y="424" font-size="11" fill="#1C2B35" text-anchor="middle" font-weight="600">ALFRESCO</text>
  <text x="150" y="440" font-size="9" fill="#7A9099" text-anchor="middle">12m²</text>
  <rect x="460" y="68" width="150" height="380" fill="#EEEAE4" stroke="#1C2B35" stroke-width="2"/>
  <text x="535" y="252" font-size="11" fill="#1C2B35" text-anchor="middle" font-weight="600">GARAGE</text>
  <text x="535" y="268" font-size="9" fill="#7A9099" text-anchor="middle">18m²</text>
  <g transform="translate(764,550)">
    <circle cx="0" cy="0" r="18" fill="white" stroke="#DDD6CC" stroke-width="1"/>
    <polygon points="0,-13 -5,8 0,4 5,8" fill="#1C2B35"/>
    <text x="0" y="20" font-size="9" fill="#7A9099" text-anchor="middle">N</text>
  </g>
  <line x1="20" y1="580" x2="120" y2="580" stroke="#1C2B35" stroke-width="2"/>
  <line x1="20" y1="575" x2="20" y2="585" stroke="#1C2B35" stroke-width="2"/>
  <line x1="120" y1="575" x2="120" y2="585" stroke="#1C2B35" stroke-width="2"/>
  <text x="70" y="594" font-size="9" fill="#7A9099" text-anchor="middle">10 METRES</text>
</svg>