<svg xmlns="http://www.w3.org/2000/svg" width="800" height="600" viewBox="0 0 800 600" font-family="sans-serif">
  <rect width="800" height="600" fill="#F6F2ED"/>
  <!-- Title bar -->
  <rect width="800" height="48" fill="#1C2B35"/>
  <text x="20" y="30" font-size="13" font-weight="700" fill="white" letter-spacing="1">THE AIRLIE — FLOOR PLAN</text>
  <text x="780" y="30" font-size="10" fill="#4ECDC4" text-anchor="end" letter-spacing="2">WHITSUNDAY HOMES</text>
  <rect x="20" y="68" width="170" height="130" fill="#EEF4F8" stroke="#1C2B35" stroke-width="2"/>
  <text x="105" y="127" font-size="11" fill="#1C2B35" text-anchor="middle" font-weight="600">MASTER</text>
  <text x="105" y="143" font-size="9" fill="#7A9099" text-anchor="middle">22m²</text>
  <rect x="20" y="198" width="90" height="75" fill="#E8F0F8" stroke="#1C2B35" stroke-width="2"/>
  <text x="65" y="229" font-size="11" fill="#1C2B35" text-anchor="middle" font-weight="600">ENSUITE</text>
  <rect x="110" y="198" width="80" height="75" fill="#F4F0EA" stroke="#1C2B35" stroke-width="2"/>
  <text x="150" y="229" font-size="11" fill="#1C2B35" text-anchor="middle" font-weight="600">WIR</text>
  <rect x="210" y="68" width="130" height="115" fill="#EEF4F8" stroke="#1C2B35" stroke-width="2"/>
  <text x="275" y="119" font-size="11" fill="#1C2B35" text-anchor="middle" font-weight="600">BED 2</text>
  <text x="275" y="135" font-size="9" fill="#7A9099" text-anchor="middle">13.4m²</text>
  <rect x="360" y="68" width="130" height="115" fill="#EEF4F8" stroke="#1C2B35" stroke-width="2"/>
  <text x="425" y="119" font-size="11" fill="#1C2B35" text-anchor="middle" font-weight="600">BED 3</text>
  <text x="425" y="135" font-size="9" fill="#7A9099" text-anchor="middle">13.0m²</text>
  <rect x="510" y="68" width="115" height="115" fill="#EEF4F8" stroke="#1C2B35" stroke-width="2"/>
  <text x="567" y="119" font-size="11" fill="#1C2B35" text-anchor="middle" font-weight="600">BED 4</text>
  <text x="567" y="135" font-size="9" fill="#7A9099" text-anchor="middle">12.4m²</text>
  <rect x="640" y="68" width="115" height="115" fill="#EEF4F8" stroke="#1C2B35" stroke-width="2"/>
  <text x="697" y="119" font-size="11" fill="#1C2B35" text-anchor="middle" font-weight="600">BED 5/STUDY</text>
  <text x="697" y="135" font-size="9" fill="#7A9099" text-anchor="middle">10.8m²</text>
  <rect x="210" y="183" width="100" height="90" fill="#E8F0F8" stroke="#1C2B35" stroke-width="2"/>
  <text x="260" y="222" font-size="11" fill="#1C2B35" text-anchor="middle" font-weight="600">BATH</text>
  <rect x="20" y="293" width="260" height="160" fill="#FAFAF8" stroke="#1C2B35" stroke-width="2"/>
  <text x="150" y="367" font-size="11" fill="#1C2B35" text-anchor="middle" font-weight="600">LIVING</text>
  <text x="150" y="383" font-size="9" fill="#7A9099" text-anchor="middle">28m²</text>
  <rect x="290" y="293" width="240" height="160" fill="#F8F4EC" stroke="#1C2B35" stroke-width="2"/>
  <text x="410" y="367" font-size="11" fill="#1C2B35" text-anchor="middle" font-weight="600">DINING + KITCHEN</text>
  <text x="410" y="383" font-size="9" fill="#7A9099" text-anchor="middle">32m²</text>
  <rect x="20" y="453" width="510" height="70" fill="#EEF8EC" stroke="#1C2B35" stroke-width="2"/>
  <text x="275" y="482" font-size="11" fill="#1C2B35" text-anchor="middle" font-weight="600">ALFRESCO</text>
  <text x="275" y="498" font-size="9" fill="#7A9099" text-anchor="middle">28m²</text>
  <rect x="550" y="293" width="210" height="180" fill="#EEEAE4" stroke="#1C2B35" stroke-width="2"/>
  <text x="655" y="377" font-size="11" fill="#1C2B35" text-anchor="middle" font-weight="600">GARAGE</text>
  <text x="655" y="393" font-size="9" fill="#7A9099" text-anchor="middle">36m²</text>
  <g transform="translate(764,550)">
    <circle cx="0" cy="0" r="18" fill="white" stroke="#DDD6CC" stroke-width="1"/>
    <polygon points="0,-13 -5,8 0,4 5,8" fill="#1C2B35"/>
    <text x="0" y="20" font-size="9" fill="#7A9099" text-anchor="middle">N</text>
  </g>
  <line x1="20" y1="580" x2="120" y2="580" stroke="#1C2B35" stroke-width="2"/>
  <line x1="20" y1="575" x2="20" y2="585" stroke="#1C2B35" stroke-width="2"/>
  <line x1="120" y1="575" x2="120" y2="585" stroke="#1C2B35" stroke-width="2"/>
  <text x="70" y="594" font-size="9" fill="#7A9099" text-anchor="middle">10 METRES</text>
</svg>