<svg xmlns="http://www.w3.org/2000/svg" width="800" height="600" viewBox="0 0 800 600" font-family="sans-serif">
  <rect width="800" height="600" fill="#F6F2ED"/>
  <!-- Title bar -->
  <rect width="800" height="48" fill="#1C2B35"/>
  <text x="20" y="30" font-size="13" font-weight="700" fill="white" letter-spacing="1">THE BOWEN — FLOOR PLAN</text>
  <text x="780" y="30" font-size="10" fill="#4ECDC4" text-anchor="end" letter-spacing="2">WHITSUNDAY HOMES</text>
  <rect x="20" y="68" width="180" height="130" fill="#EEF4F8" stroke="#1C2B35" stroke-width="2"/>
  <text x="110" y="127" font-size="11" fill="#1C2B35" text-anchor="middle" font-weight="600">MASTER SUITE</text>
  <text x="110" y="143" font-size="9" fill="#7A9099" text-anchor="middle">20.4m²</text>
  <rect x="20" y="198" width="90" height="70" fill="#E8F0F8" stroke="#1C2B35" stroke-width="2"/>
  <text x="65" y="227" font-size="11" fill="#1C2B35" text-anchor="middle" font-weight="600">ENSUITE</text>
  <rect x="110" y="198" width="90" height="70" fill="#F4F0EA" stroke="#1C2B35" stroke-width="2"/>
  <text x="155" y="227" font-size="11" fill="#1C2B35" text-anchor="middle" font-weight="600">WIR</text>
  <rect x="220" y="68" width="140" height="120" fill="#EEF4F8" stroke="#1C2B35" stroke-width="2"/>
  <text x="290" y="122" font-size="11" fill="#1C2B35" text-anchor="middle" font-weight="600">BED 2</text>
  <text x="290" y="138" font-size="9" fill="#7A9099" text-anchor="middle">12.8m²</text>
  <rect x="380" y="68" width="140" height="120" fill="#EEF4F8" stroke="#1C2B35" stroke-width="2"/>
  <text x="450" y="122" font-size="11" fill="#1C2B35" text-anchor="middle" font-weight="600">BED 3</text>
  <text x="450" y="138" font-size="9" fill="#7A9099" text-anchor="middle">12.2m²</text>
  <rect x="540" y="68" width="130" height="120" fill="#EEF4F8" stroke="#1C2B35" stroke-width="2"/>
  <text x="605" y="122" font-size="11" fill="#1C2B35" text-anchor="middle" font-weight="600">BED 4</text>
  <text x="605" y="138" font-size="9" fill="#7A9099" text-anchor="middle">11.8m²</text>
  <rect x="220" y="188" width="100" height="80" fill="#E8F0F8" stroke="#1C2B35" stroke-width="2"/>
  <text x="270" y="222" font-size="11" fill="#1C2B35" text-anchor="middle" font-weight="600">BATH</text>
  <rect x="320" y="188" width="80" height="80" fill="#F4F0EA" stroke="#1C2B35" stroke-width="2"/>
  <text x="360" y="222" font-size="11" fill="#1C2B35" text-anchor="middle" font-weight="600">LAUNDRY</text>
  <rect x="400" y="188" width="80" height="80" fill="#F4F0EA" stroke="#1C2B35" stroke-width="2"/>
  <text x="440" y="222" font-size="11" fill="#1C2B35" text-anchor="middle" font-weight="600">MUD ROOM</text>
  <rect x="20" y="288" width="320" height="180" fill="#FAFAF8" stroke="#1C2B35" stroke-width="2"/>
  <text x="180" y="372" font-size="11" fill="#1C2B35" text-anchor="middle" font-weight="600">LIVING / DINING</text>
  <text x="180" y="388" font-size="9" fill="#7A9099" text-anchor="middle">42m²</text>
  <rect x="340" y="288" width="200" height="180" fill="#F8F4EC" stroke="#1C2B35" stroke-width="2"/>
  <text x="440" y="372" font-size="11" fill="#1C2B35" text-anchor="middle" font-weight="600">KITCHEN + SCULLERY</text>
  <text x="440" y="388" font-size="9" fill="#7A9099" text-anchor="middle">18.6m²</text>
  <rect x="20" y="468" width="320" height="60" fill="#EEF8EC" stroke="#1C2B35" stroke-width="2"/>
  <text x="180" y="492" font-size="11" fill="#1C2B35" text-anchor="middle" font-weight="600">VERANDAH</text>
  <text x="180" y="508" font-size="9" fill="#7A9099" text-anchor="middle">38m²</text>
  <rect x="540" y="288" width="200" height="200" fill="#EEEAE4" stroke="#1C2B35" stroke-width="2"/>
  <text x="640" y="382" font-size="11" fill="#1C2B35" text-anchor="middle" font-weight="600">TRIPLE GARAGE</text>
  <text x="640" y="398" font-size="9" fill="#7A9099" text-anchor="middle">54m²</text>
  <g transform="translate(764,550)">
    <circle cx="0" cy="0" r="18" fill="white" stroke="#DDD6CC" stroke-width="1"/>
    <polygon points="0,-13 -5,8 0,4 5,8" fill="#1C2B35"/>
    <text x="0" y="20" font-size="9" fill="#7A9099" text-anchor="middle">N</text>
  </g>
  <line x1="20" y1="580" x2="120" y2="580" stroke="#1C2B35" stroke-width="2"/>
  <line x1="20" y1="575" x2="20" y2="585" stroke="#1C2B35" stroke-width="2"/>
  <line x1="120" y1="575" x2="120" y2="585" stroke="#1C2B35" stroke-width="2"/>
  <text x="70" y="594" font-size="9" fill="#7A9099" text-anchor="middle">10 METRES</text>
</svg>