<svg xmlns="http://www.w3.org/2000/svg" width="800" height="600" viewBox="0 0 800 600" font-family="sans-serif">
  <rect width="800" height="600" fill="#F6F2ED"/>
  <!-- Title bar -->
  <rect width="800" height="48" fill="#1C2B35"/>
  <text x="20" y="30" font-size="13" font-weight="700" fill="white" letter-spacing="1">THE PROSERPINE — FLOOR PLAN</text>
  <text x="780" y="30" font-size="10" fill="#4ECDC4" text-anchor="end" letter-spacing="2">WHITSUNDAY HOMES</text>
  <rect x="20" y="68" width="155" height="115" fill="#EEF4F8" stroke="#1C2B35" stroke-width="2"/>
  <text x="97" y="119" font-size="11" fill="#1C2B35" text-anchor="middle" font-weight="600">MASTER</text>
  <text x="97" y="135" font-size="9" fill="#7A9099" text-anchor="middle">15.8m²</text>
  <rect x="20" y="183" width="80" height="65" fill="#E8F0F8" stroke="#1C2B35" stroke-width="2"/>
  <text x="60" y="209" font-size="11" fill="#1C2B35" text-anchor="middle" font-weight="600">ENSUITE</text>
  <rect x="195" y="68" width="125" height="110" fill="#EEF4F8" stroke="#1C2B35" stroke-width="2"/>
  <text x="257" y="117" font-size="11" fill="#1C2B35" text-anchor="middle" font-weight="600">BED 2</text>
  <text x="257" y="133" font-size="9" fill="#7A9099" text-anchor="middle">11.2m²</text>
  <rect x="340" y="68" width="125" height="110" fill="#EEF4F8" stroke="#1C2B35" stroke-width="2"/>
  <text x="402" y="117" font-size="11" fill="#1C2B35" text-anchor="middle" font-weight="600">BED 3</text>
  <text x="402" y="133" font-size="9" fill="#7A9099" text-anchor="middle">10.8m²</text>
  <rect x="195" y="178" width="90" height="70" fill="#E8F0F8" stroke="#1C2B35" stroke-width="2"/>
  <text x="240" y="207" font-size="11" fill="#1C2B35" text-anchor="middle" font-weight="600">BATH</text>
  <rect x="285" y="178" width="75" height="70" fill="#F4F0EA" stroke="#1C2B35" stroke-width="2"/>
  <text x="322" y="207" font-size="11" fill="#1C2B35" text-anchor="middle" font-weight="600">LAUNDRY</text>
  <rect x="20" y="268" width="280" height="150" fill="#FAFAF8" stroke="#1C2B35" stroke-width="2"/>
  <text x="160" y="337" font-size="11" fill="#1C2B35" text-anchor="middle" font-weight="600">LIVING / DINING</text>
  <text x="160" y="353" font-size="9" fill="#7A9099" text-anchor="middle">28m²</text>
  <rect x="310" y="268" width="150" height="150" fill="#F8F4EC" stroke="#1C2B35" stroke-width="2"/>
  <text x="385" y="337" font-size="11" fill="#1C2B35" text-anchor="middle" font-weight="600">KITCHEN</text>
  <text x="385" y="353" font-size="9" fill="#7A9099" text-anchor="middle">12.4m²</text>
  <rect x="20" y="418" width="280" height="60" fill="#EEF8EC" stroke="#1C2B35" stroke-width="2"/>
  <text x="160" y="442" font-size="11" fill="#1C2B35" text-anchor="middle" font-weight="600">ALFRESCO</text>
  <text x="160" y="458" font-size="9" fill="#7A9099" text-anchor="middle">16m²</text>
  <rect x="475" y="68" width="180" height="340" fill="#EEEAE4" stroke="#1C2B35" stroke-width="2"/>
  <text x="565" y="232" font-size="11" fill="#1C2B35" text-anchor="middle" font-weight="600">GARAGE</text>
  <text x="565" y="248" font-size="9" fill="#7A9099" text-anchor="middle">36m²</text>
  <g transform="translate(764,550)">
    <circle cx="0" cy="0" r="18" fill="white" stroke="#DDD6CC" stroke-width="1"/>
    <polygon points="0,-13 -5,8 0,4 5,8" fill="#1C2B35"/>
    <text x="0" y="20" font-size="9" fill="#7A9099" text-anchor="middle">N</text>
  </g>
  <line x1="20" y1="580" x2="120" y2="580" stroke="#1C2B35" stroke-width="2"/>
  <line x1="20" y1="575" x2="20" y2="585" stroke="#1C2B35" stroke-width="2"/>
  <line x1="120" y1="575" x2="120" y2="585" stroke="#1C2B35" stroke-width="2"/>
  <text x="70" y="594" font-size="9" fill="#7A9099" text-anchor="middle">10 METRES</text>
</svg>