<svg xmlns="http://www.w3.org/2000/svg" width="800" height="600" viewBox="0 0 800 600" font-family="sans-serif">
  <rect width="800" height="600" fill="#F6F2ED"/>
  <!-- Title bar -->
  <rect width="800" height="48" fill="#1C2B35"/>
  <text x="20" y="30" font-size="13" font-weight="700" fill="white" letter-spacing="1">THE CANNONVALE — FLOOR PLAN</text>
  <text x="780" y="30" font-size="10" fill="#4ECDC4" text-anchor="end" letter-spacing="2">WHITSUNDAY HOMES</text>
  <rect x="20" y="68" width="185" height="130" fill="#EEF4F8" stroke="#1C2B35" stroke-width="2"/>
  <text x="112" y="127" font-size="11" fill="#1C2B35" text-anchor="middle" font-weight="600">MASTER</text>
  <text x="112" y="143" font-size="9" fill="#7A9099" text-anchor="middle">19.2m² — Upper</text>
  <rect x="20" y="198" width="95" height="75" fill="#E8F0F8" stroke="#1C2B35" stroke-width="2"/>
  <text x="67" y="229" font-size="11" fill="#1C2B35" text-anchor="middle" font-weight="600">ENSUITE</text>
  <rect x="115" y="198" width="90" height="75" fill="#F4F0EA" stroke="#1C2B35" stroke-width="2"/>
  <text x="160" y="229" font-size="11" fill="#1C2B35" text-anchor="middle" font-weight="600">WIR</text>
  <rect x="225" y="68" width="135" height="120" fill="#EEF4F8" stroke="#1C2B35" stroke-width="2"/>
  <text x="292" y="122" font-size="11" fill="#1C2B35" text-anchor="middle" font-weight="600">BED 2</text>
  <text x="292" y="138" font-size="9" fill="#7A9099" text-anchor="middle">12.8m²</text>
  <rect x="380" y="68" width="130" height="120" fill="#EEF4F8" stroke="#1C2B35" stroke-width="2"/>
  <text x="445" y="122" font-size="11" fill="#1C2B35" text-anchor="middle" font-weight="600">BED 3</text>
  <text x="445" y="138" font-size="9" fill="#7A9099" text-anchor="middle">12.2m²</text>
  <rect x="530" y="68" width="125" height="120" fill="#EEF4F8" stroke="#1C2B35" stroke-width="2"/>
  <text x="592" y="122" font-size="11" fill="#1C2B35" text-anchor="middle" font-weight="600">BED 4</text>
  <text x="592" y="138" font-size="9" fill="#7A9099" text-anchor="middle">11.6m²</text>
  <rect x="225" y="188" width="100" height="85" fill="#E8F0F8" stroke="#1C2B35" stroke-width="2"/>
  <text x="275" y="224" font-size="11" fill="#1C2B35" text-anchor="middle" font-weight="600">BATH (UPPER)</text>
  <rect x="20" y="293" width="310" height="170" fill="#FAFAF8" stroke="#1C2B35" stroke-width="2"/>
  <text x="175" y="372" font-size="11" fill="#1C2B35" text-anchor="middle" font-weight="600">OPEN LIVING</text>
  <text x="175" y="388" font-size="9" fill="#7A9099" text-anchor="middle">38m² — Upper</text>
  <rect x="340" y="293" width="200" height="170" fill="#F8F4EC" stroke="#1C2B35" stroke-width="2"/>
  <text x="440" y="372" font-size="11" fill="#1C2B35" text-anchor="middle" font-weight="600">KITCHEN</text>
  <text x="440" y="388" font-size="9" fill="#7A9099" text-anchor="middle">16m²</text>
  <rect x="20" y="463" width="310" height="60" fill="#EEF8EC" stroke="#1C2B35" stroke-width="2"/>
  <text x="175" y="487" font-size="11" fill="#1C2B35" text-anchor="middle" font-weight="600">BALCONY</text>
  <text x="175" y="503" font-size="9" fill="#7A9099" text-anchor="middle">18m²</text>
  <rect x="560" y="293" width="190" height="130" fill="#F0EEF8" stroke="#1C2B35" stroke-width="2"/>
  <text x="655" y="352" font-size="11" fill="#1C2B35" text-anchor="middle" font-weight="600">RUMPUS — Lower</text>
  <text x="655" y="368" font-size="9" fill="#7A9099" text-anchor="middle">24m²</text>
  <rect x="560" y="423" width="190" height="100" fill="#EEEAE4" stroke="#1C2B35" stroke-width="2"/>
  <text x="655" y="467" font-size="11" fill="#1C2B35" text-anchor="middle" font-weight="600">GARAGE — Lower</text>
  <text x="655" y="483" font-size="9" fill="#7A9099" text-anchor="middle">36m²</text>
  <g transform="translate(764,550)">
    <circle cx="0" cy="0" r="18" fill="white" stroke="#DDD6CC" stroke-width="1"/>
    <polygon points="0,-13 -5,8 0,4 5,8" fill="#1C2B35"/>
    <text x="0" y="20" font-size="9" fill="#7A9099" text-anchor="middle">N</text>
  </g>
  <line x1="20" y1="580" x2="120" y2="580" stroke="#1C2B35" stroke-width="2"/>
  <line x1="20" y1="575" x2="20" y2="585" stroke="#1C2B35" stroke-width="2"/>
  <line x1="120" y1="575" x2="120" y2="585" stroke="#1C2B35" stroke-width="2"/>
  <text x="70" y="594" font-size="9" fill="#7A9099" text-anchor="middle">10 METRES</text>
</svg>