<svg xmlns="http://www.w3.org/2000/svg" width="800" height="600" viewBox="0 0 800 600" font-family="sans-serif">
  <rect width="800" height="600" fill="#F6F2ED"/>
  <!-- Title bar -->
  <rect width="800" height="48" fill="#1C2B35"/>
  <text x="20" y="30" font-size="13" font-weight="700" fill="white" letter-spacing="1">THE WHITSUNDAY — FLOOR PLAN</text>
  <text x="780" y="30" font-size="10" fill="#4ECDC4" text-anchor="end" letter-spacing="2">WHITSUNDAY HOMES</text>
  <rect x="20" y="68" width="200" height="140" fill="#EEF4F8" stroke="#1C2B35" stroke-width="2"/>
  <text x="120" y="132" font-size="11" fill="#1C2B35" text-anchor="middle" font-weight="600">MASTER SUITE</text>
  <text x="120" y="148" font-size="9" fill="#7A9099" text-anchor="middle">26m² — Upper</text>
  <rect x="20" y="208" width="100" height="70" fill="#E8F0F8" stroke="#1C2B35" stroke-width="2"/>
  <text x="70" y="237" font-size="11" fill="#1C2B35" text-anchor="middle" font-weight="600">ENSUITE</text>
  <rect x="120" y="208" width="100" height="70" fill="#F4F0EA" stroke="#1C2B35" stroke-width="2"/>
  <text x="170" y="237" font-size="11" fill="#1C2B35" text-anchor="middle" font-weight="600">WIR</text>
  <rect x="240" y="68" width="140" height="125" fill="#EEF4F8" stroke="#1C2B35" stroke-width="2"/>
  <text x="310" y="124" font-size="11" fill="#1C2B35" text-anchor="middle" font-weight="600">BED 2</text>
  <text x="310" y="140" font-size="9" fill="#7A9099" text-anchor="middle">14m²</text>
  <rect x="400" y="68" width="135" height="125" fill="#EEF4F8" stroke="#1C2B35" stroke-width="2"/>
  <text x="467" y="124" font-size="11" fill="#1C2B35" text-anchor="middle" font-weight="600">BED 3</text>
  <text x="467" y="140" font-size="9" fill="#7A9099" text-anchor="middle">13.4m²</text>
  <rect x="550" y="68" width="200" height="140" fill="#F0EEF8" stroke="#1C2B35" stroke-width="2"/>
  <text x="650" y="132" font-size="11" fill="#1C2B35" text-anchor="middle" font-weight="600">UPSTAIRS RETREAT</text>
  <text x="650" y="148" font-size="9" fill="#7A9099" text-anchor="middle">22m²</text>
  <rect x="240" y="193" width="100" height="85" fill="#E8F0F8" stroke="#1C2B35" stroke-width="2"/>
  <text x="290" y="229" font-size="11" fill="#1C2B35" text-anchor="middle" font-weight="600">BATH (UPPER)</text>
  <rect x="360" y="193" width="120" height="85" fill="#EEF4F8" stroke="#1C2B35" stroke-width="2"/>
  <text x="420" y="229" font-size="11" fill="#1C2B35" text-anchor="middle" font-weight="600">BED 4/STUDY</text>
  <text x="420" y="245" font-size="9" fill="#7A9099" text-anchor="middle">12m²</text>
  <rect x="20" y="308" width="310" height="170" fill="#FAFAF8" stroke="#1C2B35" stroke-width="2"/>
  <text x="175" y="387" font-size="11" fill="#1C2B35" text-anchor="middle" font-weight="600">MAIN LIVING</text>
  <text x="175" y="403" font-size="9" fill="#7A9099" text-anchor="middle">36m² — Ground</text>
  <rect x="340" y="308" width="200" height="170" fill="#F8F4EC" stroke="#1C2B35" stroke-width="2"/>
  <text x="440" y="387" font-size="11" fill="#1C2B35" text-anchor="middle" font-weight="600">KITCHEN + SCULLERY</text>
  <text x="440" y="403" font-size="9" fill="#7A9099" text-anchor="middle">20m²</text>
  <rect x="20" y="478" width="310" height="60" fill="#EEF8EC" stroke="#1C2B35" stroke-width="2"/>
  <text x="175" y="502" font-size="11" fill="#1C2B35" text-anchor="middle" font-weight="600">ALFRESCO</text>
  <text x="175" y="518" font-size="9" fill="#7A9099" text-anchor="middle">24m²</text>
  <rect x="560" y="308" width="200" height="180" fill="#EEEAE4" stroke="#1C2B35" stroke-width="2"/>
  <text x="660" y="392" font-size="11" fill="#1C2B35" text-anchor="middle" font-weight="600">GARAGE</text>
  <text x="660" y="408" font-size="9" fill="#7A9099" text-anchor="middle">36m²</text>
  <g transform="translate(764,550)">
    <circle cx="0" cy="0" r="18" fill="white" stroke="#DDD6CC" stroke-width="1"/>
    <polygon points="0,-13 -5,8 0,4 5,8" fill="#1C2B35"/>
    <text x="0" y="20" font-size="9" fill="#7A9099" text-anchor="middle">N</text>
  </g>
  <line x1="20" y1="580" x2="120" y2="580" stroke="#1C2B35" stroke-width="2"/>
  <line x1="20" y1="575" x2="20" y2="585" stroke="#1C2B35" stroke-width="2"/>
  <line x1="120" y1="575" x2="120" y2="585" stroke="#1C2B35" stroke-width="2"/>
  <text x="70" y="594" font-size="9" fill="#7A9099" text-anchor="middle">10 METRES</text>
</svg>