<svg xmlns="http://www.w3.org/2000/svg" width="450" height="295" viewBox="0 0 450 295">
  <rect width="450" height="295" fill="#BDB5A6"/>
  
  <!-- Ground shadow -->
  <ellipse cx="225" cy="196" rx="106" ry="7" fill="#ada698" opacity="0.4"/>
  
  <!-- House body -->
  <rect x="107" y="107" width="236" height="81" fill="#9a9488"/>
  
  <!-- Side posts -->
  <rect x="107" y="107" width="5" height="81" fill="#3A4A56" opacity="0.6"/>
  <rect x="338" y="107" width="5" height="81" fill="#3A4A56" opacity="0.6"/>
  
  
  
  <!-- Door -->
  <rect x="217" y="162" width="17" height="26" fill="#BDB5A6" stroke="#4ECDC4" stroke-width="1.5"/>
  
  <!-- Roof -->
  <polygon points="100,107 225,56 350,107" fill="#1C2B35" opacity="0.85"/>
  
  <!-- Wave 1 -->
  <path d="M93 205 Q126 195 159 205 Q192 215 225 205 Q258 195 291 205 Q324 215 357 205" stroke="#4ECDC4" stroke-width="1.5" fill="none" stroke-linecap="round"/>
  
  <!-- Wave 2 -->
  <path d="M93 216 Q126 211 159 216 Q192 221 225 216 Q258 211 291 216 Q324 221 357 216" stroke="#4ECDC4" stroke-width="1" fill="none" stroke-linecap="round" opacity="0.35"/>
  
  <!-- Logo mark small -->
  <text x="430" y="279" font-family="serif" font-size="9" fill="#1C2B35" opacity="0.2" text-anchor="end">WHITSUNDAY HOMES</text>
  
  <!-- Label -->
  <rect x="0" y="263" width="450" height="32" fill="#ada698" opacity="0.5"/>
  <text x="20" y="275" font-family="sans-serif" font-size="11" fill="#1C2B35" opacity="0.55" font-weight="600">Facade Detail</text>
</svg>